<svg width="560" height="561" viewBox="0 0 560 561" fill="none" xmlns="http://www.w3.org/2000/svg">
    <path d="M433.077 173.246c46.778-31.037 73.762-72.998 60.27-93.726-13.492-20.728-62.351-12.37-109.134 18.667-46.778 31.037-73.763 72.998-60.271 93.726 13.493 20.728 62.352 12.37 109.135-18.667z" fill="url(#xd1p5pb90a)"/>
    <mask id="omg4eilq1b" style="mask-type:alpha" maskUnits="userSpaceOnUse" x="320" y="68" width="177" height="136">
        <path fill-rule="evenodd" clip-rule="evenodd" d="M433.077 173.246c46.778-31.037 73.762-72.998 60.27-93.726-13.492-20.728-62.351-12.37-109.134 18.667-46.778 31.037-73.763 72.998-60.271 93.726 13.493 20.728 62.352 12.37 109.135-18.667z" fill="#fff"/>
    </mask>
    <g mask="url(#omg4eilq1b)">
        <path opacity=".62" fill-rule="evenodd" clip-rule="evenodd" d="M443.903 118.726a1446.199 1446.199 0 0 0 26.709-20.082c2.199-1.699 3.94-3.05 5.131-3.978l1.362-1.068.349-.273.089-.07.025-.014.005-.005c0-.005 0-.005.865 1.117l.866 1.123-.005.004-.025.015-.088.075-.354.273-1.368 1.073c-1.195.928-2.941 2.289-5.145 3.987a1418.903 1418.903 0 0 1-17.998 13.637c-3.354 2.502-6.94 5.154-10.688 7.895l43.605 11.472-.708 2.751-45.863-12.067c-7.639 5.551-15.844 11.376-24.059 16.983l46.429 12.519-.728 2.746-48.804-13.16a622.734 622.734 0 0 1-10.605 7.012c-7.826 5.061-16.316 10.101-24.791 14.883l47.56 15.826-.881 2.702-50.024-16.651c-9.503 5.294-18.869 10.22-27.137 14.436a969.747 969.747 0 0 1-20.62 10.22 763.151 763.151 0 0 1-7.619 3.615l-.418.194-.109.049-.024.01-.01.005-.585-1.291-.586-1.291v-.005h.01l.025-.015.103-.045.413-.193c.364-.169.9-.422 1.599-.75a656.091 656.091 0 0 0 5.991-2.846 1005.46 1005.46 0 0 0 20.561-10.195 873.031 873.031 0 0 0 21.141-11.133l-.271-.01 2.538-73.902 2.814.099-2.484 72.388a640.695 640.695 0 0 0 4.314-2.389l.019-.055.045.015c8.598-4.807 17.265-9.902 25.287-15.026l-.142-.015 8.445-68.5 2.794.348-8.175 66.285c12.735-8.279 26.173-17.754 38.097-26.444l6.419-51.56 2.794.352-6.09 48.924z" fill="#EB8063"/>
    </g>
    <path fill-rule="evenodd" clip-rule="evenodd" d="M178.21 15.446c-7.027-7.039-18.999-4.266-22.216 5.145L11.946 442.026c-3.21 9.389 4.52 18.897 14.366 17.673L528.75 397.27c11.091-1.379 15.746-14.909 7.85-22.819L178.21 15.446z" fill="url(#lsxs4wqspc)"/>
    <g opacity=".363">
        <path d="M32.18 165.309c.178 1.927 9.855 28.898 29.035 42.386 19.18 13.485 35.543 16.111 35.543 16.111" stroke="#EB8063" stroke-width=".549"/>
        <path d="M32.969 165.048c7.216-1.823 10.803-12.734 8.01-24.368-2.793-11.635-10.904-19.589-18.118-17.766-7.217 1.824-10.804 12.732-8.01 24.366 2.793 11.638 10.904 19.592 18.118 17.768zM23.116 189.682c7.738-.061 13.978-3.933 13.937-8.641-.041-4.711-6.349-8.48-14.087-8.419-7.738.064-13.979 3.933-13.937 8.644.04 4.711 6.348 8.48 14.087 8.416zM37.77 204.207c6.046-.663 10.622-4.428 10.225-8.411-.396-3.983-5.617-6.676-11.66-6.013-6.045.659-10.62 4.424-10.224 8.411.397 3.982 5.617 6.675 11.66 6.013zM57.525 171.941c3.839-6.317 3.514-13.318-.726-15.633-4.24-2.319-10.79.925-14.628 7.243-3.839 6.317-3.517 13.315.723 15.634 4.24 2.315 10.79-.926 14.631-7.244zM63.415 191.227c3.531-4.914 3.863-10.68.742-12.88-3.118-2.197-8.51.003-12.038 4.917-3.531 4.911-3.86 10.68-.742 12.877 3.121 2.2 8.51 0 12.038-4.914z" fill="#FF795B"/>
        <path d="M27.306 136.06s.19 8.94 1.875 16.83c.56 2.98 1.686 6.134 2.999 8.762" stroke="#fff" stroke-width=".769" stroke-linecap="round" stroke-linejoin="round"/>
    </g>
    <path d="M154.223 222.049c19.841-15.059 8.193-63.953-26.017-109.209-34.21-45.253-78.024-69.73-97.864-54.672-19.841 15.06-8.193 63.953 26.017 109.209s78.027 69.733 97.864 54.672z" fill="url(#as4mms8a2d)"/>
    <g opacity=".54">
        <mask id="b22ezhahje" style="mask-type:alpha" maskUnits="userSpaceOnUse" x="20" y="53" width="144" height="174">
            <path fill-rule="evenodd" clip-rule="evenodd" d="M154.223 222.049c19.841-15.059 8.193-63.953-26.017-109.209-34.21-45.253-78.024-69.73-97.864-54.672-19.841 15.06-8.193 63.953 26.017 109.209s78.027 69.733 97.864 54.672z" fill="#fff"/>
        </mask>
        <g mask="url(#b22ezhahje)">
            <path fill-rule="evenodd" clip-rule="evenodd" d="M107.254 145.159a629.842 629.842 0 0 0-7.84-10.414l9.748-50.754-1.725-.332-9.454 49.232c-6.468-8.36-13.217-16.726-19.617-24.472l9.225-47.622-1.722-.335-8.953 46.207c-3.25-3.92-6.4-7.669-9.356-11.156a1463.346 1463.346 0 0 0-14.927-17.33c-1.86-2.122-3.342-3.801-4.36-4.95-.508-.574-.903-1.016-1.17-1.314l-.404-.454-.653.586-.652.587.404.451c.264.298.656.737 1.164 1.311 1.018 1.148 2.497 2.825 4.354 4.943a1403.43 1403.43 0 0 1 14.908 17.309c2.463 2.904 5.055 5.986 7.733 9.201l-50.484-2.696-.095 1.753 52.108 2.785c9.804 11.82 20.563 25.233 29.926 37.924l-67.91-3.628-.095 1.756 69.093 3.69.015-.31c5.84 8.028 11.716 16.756 17.286 25.408l-.04.162.175.046a717.807 717.807 0 0 1 3.042 4.768l-73.42 2.435.059 1.756 74.176-2.459-.016-.467a961.008 961.008 0 0 1 12.936 21.147 1069.515 1069.515 0 0 1 11.654 20.099 935.861 935.861 0 0 1 4.145 7.427l.221.402.073.135c0 .003 0 .003.769-.42.772-.421.769-.421.769-.421l-.003-.009-.07-.129-.224-.409c-.196-.356-.487-.887-.867-1.571-.76-1.37-1.875-3.368-3.287-5.87a1086.071 1086.071 0 0 0-11.673-20.134c-4.853-8.163-10.506-17.419-16.529-26.792l13.444-51.986-1.698-.442-13.039 50.423c-5.542-8.566-11.366-17.168-17.144-25.067z" fill="#EB8063"/>
        </g>
    </g>
    <path fill-rule="evenodd" clip-rule="evenodd" d="M51.998 138.643c0-4.21 3.614-7.513 7.807-7.134l392.993 35.43a7.163 7.163 0 0 1 6.52 7.134v273.682c0 4.271-3.715 7.594-7.96 7.119L58.366 410.928a7.163 7.163 0 0 1-6.367-7.119V138.643z" fill="#fff"/>
    <g filter="url(#d74fz59eef)">
        <path fill-rule="evenodd" clip-rule="evenodd" d="M267 345.137c0-4.253 3.683-7.569 7.913-7.124l177.673 18.683A7.163 7.163 0 0 1 459 363.82v79.23c0 4.314-3.786 7.65-8.066 7.106L273.261 427.59a7.163 7.163 0 0 1-6.261-7.106v-75.347z" fill="#fff"/>
    </g>
    <path opacity=".345" fill-rule="evenodd" clip-rule="evenodd" d="M277 352.534c0-4.469 3.864-7.958 8.31-7.502l41.916 4.292a7.542 7.542 0 0 1 6.774 7.503c0 4.469-3.864 7.958-8.31 7.503l-41.916-4.293a7.542 7.542 0 0 1-6.774-7.503z" fill="#E8E8E8"/>
    <path opacity=".065" fill-rule="evenodd" clip-rule="evenodd" d="M277 369.175a2.686 2.686 0 0 1 2.977-2.671l76.627 8.327a2.686 2.686 0 0 1 2.396 2.67v46.686a2.686 2.686 0 0 1-2.977 2.67l-76.627-8.327a2.686 2.686 0 0 1-2.396-2.67v-46.685z" fill="#103861"/>
    <path opacity=".076" fill-rule="evenodd" clip-rule="evenodd" d="M380 384.191a2.686 2.686 0 0 1 2.991-2.669l50.628 5.784a2.686 2.686 0 0 1 2.381 2.669v4.195a2.686 2.686 0 0 1-2.991 2.669l-50.628-5.784a2.686 2.686 0 0 1-2.381-2.668v-4.196z" fill="#002143"/>
    <ellipse opacity=".076" cx="369.5" cy="402.181" rx="2.5" ry="3" fill="#002143"/>
    <ellipse opacity=".076" cx="369.5" cy="385.181" rx="2.5" ry="3" fill="#002143"/>
    <ellipse opacity=".076" cx="369.5" cy="419.181" rx="2.5" ry="3" fill="#002143"/>
    <path opacity=".076" fill-rule="evenodd" clip-rule="evenodd" d="M380 402.191a2.686 2.686 0 0 1 2.991-2.669l50.628 5.784a2.686 2.686 0 0 1 2.381 2.669v4.195a2.686 2.686 0 0 1-2.991 2.669l-50.628-5.784a2.686 2.686 0 0 1-2.381-2.668v-4.196zM380 418.191a2.686 2.686 0 0 1 2.991-2.669l50.628 5.784a2.686 2.686 0 0 1 2.381 2.669v4.195a2.686 2.686 0 0 1-2.991 2.669l-50.628-5.784a2.686 2.686 0 0 1-2.381-2.668v-4.196z" fill="#002143"/>
    <path opacity=".422" d="M222.289 516.224c56.366 0 102.063-45.716 102.063-102.11 0-56.395-45.697-102.111-102.063-102.111S120.23 357.719 120.23 414.114c0 56.394 45.693 102.11 102.059 102.11z" fill="#F8E0DA"/>
    <path opacity=".527" d="M222.783 481.694c37.032 0 67.055-30.036 67.055-67.087 0-37.052-30.023-67.087-67.055-67.087-37.033 0-67.054 30.035-67.054 67.087 0 37.051 30.021 67.087 67.054 67.087z" fill="#F6BBAD"/>
    <path d="M222.29 451.11c20.424 0 36.979-16.564 36.979-36.996 0-20.432-16.555-36.997-36.979-36.997-20.423 0-36.978 16.565-36.978 36.997s16.555 36.996 36.978 36.996z" fill="#FF795B"/>
    <path d="M233.202 412.471c-1.568-.478-2.773-.956-3.738-1.434-.603-.239-.965-.478-1.326-.717-.361-.238-.723-.598-.844-.836-.361-.478-.722-1.314-1.085-2.509-.362-.956-.723-2.27-1.205-3.705a178.818 178.818 0 0 1-2.049-7.408h-1.207c-.723 2.747-1.326 5.258-1.928 7.288-.482 1.435-.843 2.749-1.207 3.705-.482 1.195-.843 2.031-1.205 2.629-.361.598-1.205 1.076-2.29 1.673-.965.478-2.291.956-3.737 1.434-2.29.716-5.063 1.314-8.319 2.031v1.196c3.377.716 6.148 1.314 8.439 1.91 1.568.36 2.773.837 3.738 1.197.482.238.964.358 1.326.596.361.24.722.358.843.598.121.238.362.478.604.956.24.358.361.836.601 1.434.364.955.844 2.269 1.207 3.824.602 2.15 1.326 4.899 2.049 8.006h1.205c.724-3.107 1.326-5.736 1.93-7.886.482-1.555.843-2.869 1.205-3.825.242-.597.363-1.075.603-1.433.24-.478.361-.718.603-.956.241-.24.483-.36.844-.598s.844-.358 1.326-.598c.965-.358 2.17-.717 3.736-1.075 2.172-.598 4.943-1.196 8.199-1.792v-1.195c-3.375-1.076-6.148-1.792-8.318-2.51zM234.049 398.994c.113 0 .227.112.455.222 0 0 .227.111.341.222.113.11.113.222.227.333.114.111.114.221.229.444.112.221.226.555.226.777l.57 1.776.568-1.776c.114-.333.228-.556.228-.777 0-.111.114-.333.227-.444 0 0 .114-.223.228-.333.115-.111.227-.111.341-.222.115-.11.227-.11.456-.222.227-.111.455-.111.682-.222l1.707-.445-1.707-.553c-.227-.112-.568-.223-.796-.333-.115-.111-.342-.111-.456-.223-.112-.111-.227-.221-.341-.332-.114-.223-.227-.556-.341-.666-.114-.223-.114-.444-.228-.667l-.568-1.664-.57 1.664c-.114.223-.114.444-.226.667-.115.333-.343.554-.456.777-.114.11-.455.333-.796.444-.228.11-.455.221-.684.221l-1.706.556 1.706.444c.115.11.456.221.684.332z" fill="#FCFFFF"/>
    <path opacity=".345" fill-rule="evenodd" clip-rule="evenodd" d="M154.052 319.325c0-6.09 5.259-10.847 11.318-10.238l58.647 5.894a10.289 10.289 0 0 1 9.261 10.238c0 6.089-5.26 10.846-11.319 10.237l-58.647-5.894a10.288 10.288 0 0 1-9.26-10.237z" fill="#E8E8E8"/>
    <path opacity=".368" fill-rule="evenodd" clip-rule="evenodd" d="M66.322 163.82c0-5.276 4.539-9.409 9.792-8.915L266.466 172.8a8.955 8.955 0 0 1 8.116 8.915v115.504c0 5.276-4.539 9.409-9.792 8.915L74.438 288.239a8.955 8.955 0 0 1-8.116-8.915V163.82z" fill="url(#tv1tzkhg5g)"/>
    <path opacity=".345" fill-rule="evenodd" clip-rule="evenodd" d="M65.426 309.479c0-6.09 5.26-10.847 11.319-10.238l58.647 5.894a10.29 10.29 0 0 1 9.26 10.238c0 6.089-5.259 10.847-11.318 10.238l-58.647-5.894a10.29 10.29 0 0 1-9.26-10.238z" fill="#E8E8E8"/>
    <path d="m186.465 40.507 1.871-2.107a.551.551 0 0 1 .936.313l.156 2.807a4.607 4.607 0 0 0 1.639 3.276l2.105 1.872a.552.552 0 0 1-.312.936l-2.808.156a4.616 4.616 0 0 0-3.276 1.638l-1.872 2.105a.551.551 0 0 1-.936-.312l-.155-2.807a4.612 4.612 0 0 0-1.639-3.276l-2.105-1.872a.55.55 0 0 1 .311-.936l2.809-.156c1.247-.077 2.495-.702 3.276-1.637z" fill="#fff"/>
    <path fill-rule="evenodd" clip-rule="evenodd" d="m182.68 133.409 7.479-4.165 18.191 2.557 6.347 6.108-6.106 20.136-15.704 9.518-10.207-34.154z" fill="#fff"/>
    <path d="M284.874 104.311s5.803-17.76 9.112-22.317c3.309-4.557 6.588-10.6 13.199-8.769 7.694 2.271-2.037 25.601-2.037 25.601l-9.065 10.754-11.209-5.269z" fill="#FFDBA5"/>
    <path d="M307.799 89.552c.955.135 5.129-4.071 14.547-8.74 9.417-4.668 12.439-5.166 15.486-1.114 3.046 4.051-.216 8.47-.216 8.47s6.561-.193 6.068 6.289c-.492 6.479-4.034 8.909-4.034 8.909s6.26 3.945 1.096 11.999c-5.028 8.072-14.016 13.639-26.942 16.56-12.926 2.922-26.119-.186-26.119-.186l-3.635-29.262 23.749-12.925z" fill="#FFDBA5"/>
    <path d="M335.071 90.421c-2.279 2.644-3.823 3.45-7.614 6.68-3.79 3.229-7.916 3.672-7.916 3.672M307.798 89.552c-3.79 3.23-10.526 8.091-10.526 8.091" stroke="#C9A549" stroke-width=".953" stroke-linecap="round" stroke-linejoin="round"/>
    <path d="M324.906 117.939c1.308-14.755-11.298-22.342-11.298-22.342M335.468 105.253c-3.418 4.536-9.234 6.206-9.682 6.423" stroke="#C9A549" stroke-width=".953" stroke-linecap="round" stroke-linejoin="round"/>
    <path fill-rule="evenodd" clip-rule="evenodd" d="M284.907 98.78s-53.035 37.605-68.369 37.173c-15.334-.432-22.518 62.334 22.912 60.293 45.429-2.042 81.992-66.066 81.992-66.066l-36.535-31.4z" fill="url(#5ffneqfmjh)"/>
    <path d="M240.254 288.28c1.647-4.785 13.807-63.98 14.284-69.349l1.048-11.42c2.991-34.14 1.092-67.786-33.133-70.645l-7.052-.292-10.497 29.182s-1.314-4.505-7.157-14.383c-4.378-7.446-10.741-14.611-13.765-17.822l-25.557-2.199c-34.227-2.859-64.345 22.452-67.197 56.612l-1.05 11.42c-.495 5.505 2.492 70.078 3.437 75.228l146.639 13.668z" fill="#002143"/>
    <path d="M184.311 195.423s15.661-10.153 21.094-11.61c5.432-1.458 11.774-4.09 15.758 1.503 4.549 6.618-17.662 18.625-17.662 18.625l-13.795 2.648-5.395-11.166z" fill="#FFDBA5"/>
    <ellipse cx="212.182" cy="155.896" rx="17.839" ry="17.885" transform="rotate(16 212.182 155.896)" fill="url(#0qd4xjycsi)"/>
    <path fill-rule="evenodd" clip-rule="evenodd" d="M225.997 168.293a18.342 18.342 0 0 0-22.457 1.08l-1.591 1.361 8.585 66.109a8.216 8.216 0 0 0 16.361-1.168l-.898-67.382z" fill="url(#dyf4ga0n4j)"/>
    <path d="M201.042 198.288c.927.266 7.343-1.628 17.32-4.941 9.975-3.311 11.339-5.075 13.792-.638 2.453 4.436-1.393 8.358-1.393 8.358s6.525.722 5.135 7.072c-1.39 6.348-5.235 8.26-5.235 8.26s5.65 4.779-.585 12.035c-6.102 7.295-15.778 11.557-28.984 12.65-13.207 1.094-25.839-3.82-25.839-3.82l13.721-39.853 12.068.877z" fill="#FFDBA5"/>
    <path d="M231.045 200.574c-2.598 4.566-7.807 8.24-10.989 10.344-4.203 2.67-7.326 3.067-7.326 3.067M230.623 216.532c-4.016 4.016-8.731 6.971-9.205 7.124" stroke="#C9A549" stroke-width=".953" stroke-linecap="round" stroke-linejoin="round"/>
    <path d="M196.006 160.597s6.611-9.281 16.946-10.167c10.334-.885 16.402 3.86 16.402 3.86" stroke="#E8E8E8" stroke-width="2.149" stroke-linecap="round" stroke-linejoin="round"/>
    <path d="M195.302 127.933c14.837 2.085 28.558-8.279 30.648-23.148 2.09-14.868-8.243-28.61-23.081-30.696-14.837-2.085-28.557 8.277-30.647 23.145-2.09 14.869 8.243 28.614 23.08 30.699z" fill="#FFDBA5"/>
    <path d="M219.187 82.653c-4.45-4.946-10.65-8.325-17.799-8.913-14.979-1.268-28.084 9.85-29.341 24.724a36.457 36.457 0 0 0 .07 5.445c8.978.427 16.874-6.269 17.596-15.365 4.421.203 9.348-.218 14.351-1.188 5.55-.893 10.649-2.546 15.123-4.703z" fill="#002143"/>
    <path d="m209.563 100.671 1.761 3.313M213.205 110.38s-2.469 1.743-5.019 2.083c-2.553.338-5.262-1.158-5.262-1.158" stroke="#C9A549" stroke-width="1.117"/>
    <path opacity=".6" fill-rule="evenodd" clip-rule="evenodd" d="M154.451 25.29 73.483 261.159l390.464 40.973-284.342-285.84s-5.962-6.87-14.81-3.611c-8.849 3.258-10.344 12.609-10.344 12.609z" fill="url(#q6d51xlx4k)"/>
    <ellipse opacity=".888" cx="167.049" cy="19.988" rx="11.638" ry="9.399" transform="rotate(-6 167.049 19.988)" fill="#fff"/>
    <path fill-rule="evenodd" clip-rule="evenodd" d="m66.322 261.158 195.67 16.731.38 29.165-177.85-17.461-9.636-1.269a9.85 9.85 0 0 1-8.564-9.766v-17.4z" fill="#3A3A3A"/>
    <path d="m96.311 277.962 167.485 15.322" stroke="#979797" stroke-width="3.582" stroke-linecap="square"/>
    <path d="m96.311 277.962 73.234 7.161" stroke="#fff" stroke-width="3.582" stroke-linecap="square"/>
    <g filter="url(#y474xcefrl)">
        <path fill-rule="evenodd" clip-rule="evenodd" d="M248.944 184.222c0-4.217 3.626-7.522 7.825-7.132l280.197 26.004a7.164 7.164 0 0 1 6.501 7.132v127.339c0 4.261-3.698 7.581-7.935 7.122l-280.196-30.348a7.165 7.165 0 0 1-6.392-7.122V184.222z" fill="url(#l2e750yccm)"/>
    </g>
    <path fill-rule="evenodd" clip-rule="evenodd" d="M265.953 199.89c0-6.365 5.497-11.339 11.831-10.703l65.32 6.55a10.758 10.758 0 0 1 9.684 10.704v.999c0 6.365-5.497 11.339-11.831 10.704l-65.32-6.551a10.758 10.758 0 0 1-9.684-10.704v-.999z" fill="#E16464"/>
    <path opacity=".34" fill-rule="evenodd" clip-rule="evenodd" d="M265.953 224.118c0-1.6 1.389-2.845 2.978-2.671l119.957 13.142a2.686 2.686 0 0 1 2.394 2.67v74.856a2.686 2.686 0 0 1-2.979 2.67l-119.957-13.141a2.686 2.686 0 0 1-2.393-2.67v-74.856z" fill="#2C5783"/>
    <g opacity=".428">
        <path fill-rule="evenodd" clip-rule="evenodd" d="m323.145 257.091 2.543-1.404 6.19.87 2.162 2.066-2.071 6.802-5.34 3.211-3.484-11.545z" fill="#fff"/>
        <path d="M357.907 247.293s1.968-5.999 3.092-7.538c1.125-1.539 2.238-3.579 4.489-2.958 2.618.77-.685 8.65-.685 8.65l-3.081 3.631-3.815-1.785z" fill="#FFDBA5"/>
        <path d="M365.702 242.313c.325.046 1.744-1.374 4.947-2.948 3.202-1.575 4.231-1.742 5.269-.372 1.037 1.371-.071 2.863-.071 2.863s2.232-.063 2.067 2.127c-.166 2.189-1.37 3.009-1.37 3.009s2.131 1.335.377 4.055c-1.708 2.726-4.764 4.604-9.161 5.587-4.397.983-8.888-.072-8.888-.072l-1.246-9.889 8.076-4.36z" fill="#FFDBA5"/>
        <path d="M374.982 242.617c-.775.893-1.3 1.164-2.589 2.255-1.288 1.09-2.692 1.238-2.692 1.238M365.702 242.313c-1.289 1.091-3.579 2.731-3.579 2.731" stroke="#C9A549" stroke-width=".549" stroke-linecap="round" stroke-linejoin="round"/>
        <path d="M371.532 251.912c.44-4.985-3.851-7.554-3.851-7.554M375.122 247.629c-1.162 1.531-3.14 2.094-3.293 2.167" stroke="#C9A549" stroke-width=".549" stroke-linecap="round" stroke-linejoin="round"/>
        <path fill-rule="evenodd" clip-rule="evenodd" d="M357.916 245.425s-18.033 12.689-23.25 12.538c-5.218-.151-7.641 21.056 7.816 20.382 15.457-.675 27.876-22.298 27.876-22.298l-12.442-10.622z" fill="url(#fwn4gqlk7n)"/>
        <path d="M343.142 309.269c.558-1.616 4.321-21.44 4.481-23.254l.353-3.859c1.006-11.535.349-22.905-11.297-23.883l-2.4-.101-3.562 9.858s-.448-1.523-2.44-4.863c-1.492-2.518-3.659-4.941-4.689-6.027l-8.697-.751c-11.647-.978-21.886 7.565-22.845 19.107l-.354 3.859c-.166 1.86.872 23.681 1.195 25.421l50.255 4.493z" fill="#002143"/>
        <path d="M323.725 278.039s5.32-3.422 7.167-3.911c1.846-.49 4.002-1.375 5.36.518 1.552 2.24-5.995 6.285-5.995 6.285l-4.69.886-1.842-3.778z" fill="#FFDBA5"/>
        <ellipse cx="333.179" cy="264.695" rx="6.071" ry="6.043" transform="rotate(16 333.179 264.695)" fill="url(#h53fcjh9to)"/>
        <path fill-rule="evenodd" clip-rule="evenodd" d="M337.885 268.894a6.274 6.274 0 0 0-7.653.364l-.524.446 2.962 22.351a2.793 2.793 0 0 0 5.564-.41l-.349-22.751z" fill="url(#8gp07zs6up)"/>
        <path d="M329.417 279.018c.316.091 2.497-.545 5.888-1.658 3.39-1.113 3.853-1.709 4.69-.207.838 1.501-.468 2.824-.468 2.824s2.22.249 1.751 2.394c-.469 2.145-1.775 2.789-1.775 2.789s1.924 1.619-.191 4.068c-2.071 2.462-5.359 3.897-9.85 4.258-4.491.361-8.791-1.308-8.791-1.308l4.641-13.464 4.105.304z" fill="#FFDBA5"/>
        <path d="M339.623 279.811c-.881 1.541-2.65 2.78-3.731 3.489-1.428.9-2.489 1.032-2.489 1.032M339.49 285.204c-1.363 1.356-2.965 2.352-3.126 2.403" stroke="#C9A549" stroke-width=".549" stroke-linecap="round" stroke-linejoin="round"/>
        <path d="M327.68 266.274s2.243-3.133 5.757-3.426c3.514-.293 5.581 1.315 5.581 1.315" stroke="#E8E8E8" stroke-width=".967" stroke-linecap="round" stroke-linejoin="round"/>
        <path d="M327.438 255.246c5.049.709 9.714-2.788 10.42-7.812.706-5.024-2.815-9.671-7.864-10.381-5.049-.709-9.714 2.788-10.42 7.811-.706 5.024 2.815 9.672 7.864 10.382z" fill="#FFDBA5"/>
        <path d="M335.549 239.953c-1.515-1.673-3.626-2.817-6.059-3.018-5.097-.433-9.552 3.319-9.975 8.345-.037.607-.029 1.22.026 1.84 3.055.147 5.739-2.113 5.982-5.186 1.504.07 3.18-.071 4.882-.397a18.79 18.79 0 0 0 5.144-1.584z" fill="#002143"/>
        <path d="m332.281 246.038.6 1.12M333.523 249.321s-.839.588-1.707.702c-.868.113-1.791-.393-1.791-.393" stroke="#C9A549" stroke-width=".549"/>
        <path d="M301.706 292.957c-6.125-.531-10.627-5.872-10.108-11.92.525-6.095 5.887-10.568 11.965-10.043l21.979 1.865-1.862 22.009-17.771-1.509" fill="url(#1de9nvtvvq)"/>
        <path d="m303.563 270.994 21.98 1.864-1.863 22.01-17.77-1.509" stroke="#66A4EC" stroke-width=".549"/>
    </g>
    <path opacity=".697" fill-rule="evenodd" clip-rule="evenodd" d="M421.719 246.504a2.686 2.686 0 0 1 2.986-2.669l80.567 9.059a2.687 2.687 0 0 1 2.387 2.67v9.099a2.686 2.686 0 0 1-2.987 2.669l-80.567-9.059a2.686 2.686 0 0 1-2.386-2.67v-9.099z" fill="url(#ckyz07vihr)"/>
    <ellipse opacity=".697" cx="406.948" cy="276.172" rx="4.028" ry="4.923" fill="#D25249"/>
    <ellipse opacity=".697" cx="406.948" cy="250.213" rx="4.028" ry="4.923" fill="#DF5858"/>
    <ellipse opacity=".697" cx="406.948" cy="302.131" rx="4.028" ry="4.923" fill="#DF5858"/>
    <path opacity=".697" fill-rule="evenodd" clip-rule="evenodd" d="M421.719 274.254a2.686 2.686 0 0 1 2.986-2.669l80.567 9.059a2.687 2.687 0 0 1 2.387 2.67v9.099a2.686 2.686 0 0 1-2.987 2.669l-80.567-9.059a2.686 2.686 0 0 1-2.386-2.67v-9.099z" fill="url(#s55ohb02js)"/>
    <path opacity=".697" fill-rule="evenodd" clip-rule="evenodd" d="M421.719 299.319a2.686 2.686 0 0 1 2.986-2.67l80.567 9.06a2.686 2.686 0 0 1 2.387 2.669v9.099a2.687 2.687 0 0 1-2.987 2.67l-80.567-9.06a2.685 2.685 0 0 1-2.386-2.669v-9.099z" fill="url(#5ay520jhht)"/>
    <path d="M174.642 495.803c6.428 0 11.637-5.208 11.637-11.637 0-6.426-5.209-11.637-11.637-11.637-6.427 0-11.638 5.211-11.638 11.637 0 6.429 5.211 11.637 11.638 11.637z" fill="#81E7FF"/>
    <path opacity=".58" d="m240.185 339.813-2.732.602c-.437.087-.798-.426-.547-.8l1.479-2.365c.702-1.046.906-2.317.599-3.553l-.602-2.733c-.087-.436.426-.796.8-.545l2.364 1.479c1.047.701 2.318.905 3.554.598l2.732-.604c.437-.085.798.428.547.802l-1.479 2.363c-.702 1.046-.906 2.317-.598 3.553l.601 2.733c.087.438-.426.798-.799.547l-2.364-1.479c-1.034-.639-2.317-.905-3.555-.598zM111.434 360.365l-5.043 1.111c-.808.16-1.473-.787-1.01-1.477l2.731-4.367c1.295-1.93 1.672-4.277 1.104-6.558l-1.111-5.047c-.16-.804.787-1.469 1.477-1.006l4.364 2.73c1.933 1.296 4.28 1.672 6.562 1.104l5.043-1.114c.808-.157 1.473.79 1.01 1.48l-2.731 4.364c-1.295 1.929-1.672 4.277-1.104 6.558l1.111 5.046c.16.808-.787 1.473-1.477 1.01l-4.364-2.73c-1.908-1.181-4.277-1.672-6.562-1.104z" fill="#FF795B"/>
    <path fill-rule="evenodd" clip-rule="evenodd" d="m76.167 268.417-.2 13.574 10.461-5.263-10.26-8.311z" fill="#fff"/>
    <ellipse cx="169.718" cy="285.123" rx="4.924" ry="5.818" fill="#fff"/>
    <path d="m321.497 433.869-25.895 90.315 22.803 8.397a89.536 89.536 0 0 0 27.644 5.455l32.263 1.19-1.506-86.586-55.309-18.771z" fill="#FFC46B"/>
    <path d="M321.417 517.285c-2.09 7.29-9.742 11.508-17.062 9.409l-8.696-2.494c-7.324-2.101-11.574-9.731-9.484-17.021 2.091-7.295 9.739-11.513 17.063-9.413l8.696 2.494c7.32 2.099 11.575 9.731 9.483 17.025z" fill="#FFC46B"/>
    <path d="M320.179 496.665c-2.596 9.051-12.13 14.401-21.088 11.832l-6.942-1.991c-8.962-2.57-14.213-12.16-11.618-21.211 2.596-9.056 12.129-14.401 21.091-11.831l6.943 1.991c8.958 2.569 14.21 12.154 11.614 21.21z" fill="#FFC46B"/>
    <path d="M323.029 478.411c-2.595 9.051-12.13 14.401-21.088 11.832l-18.892-5.418c-8.962-2.57-14.212-12.16-11.617-21.211 2.596-9.055 12.129-14.401 21.091-11.831l18.892 5.418c8.958 2.569 14.21 12.154 11.614 21.21z" fill="#FFC46B"/>
    <path d="M329.976 454.18c-2.595 9.051-12.13 14.401-21.088 11.832l-66.295-20.665c-8.962-2.57-14.213-12.159-11.617-21.21 2.596-9.056 12.129-14.401 21.091-11.831l66.295 20.664c8.958 2.569 14.21 12.155 11.614 21.21z" fill="#FFC46B"/>
    <path d="M242.322 437.978c-5.149-1.835-7.819-7.511-5.949-12.647l.916-2.518c1.852-5.088 7.463-7.728 12.563-5.91l5.937 2.116a5.373 5.373 0 0 1 3.245 6.898l-3.979 10.933a5.373 5.373 0 0 1-6.852 3.224l-5.881-2.096z" fill="#FDEACB"/>
    <path d="m276.213 455.808.563.6 1.03-.966-1.348-.42-.245.786zm-33.59-10.483.246-.786-.009-.003-.009-.003-.228.792zm-11.614-21.223.791.227-.791-.227zm21.08-11.834.245-.786-.009-.003-.009-.002-.227.791zm66.266 20.681-.246.786.009.003.009.002.228-.791zm3.172 1.276-.384.728.895.473.28-.973-.791-.228zm.03-.105.262-.781-.815-.273-.238.826.791.228zm55.216 18.514.823-.014-.01-.582-.551-.184-.262.78zm1.514 86.627-.031.823.869.032-.015-.869-.823.014zm-32.23-1.193-.03.823.03-.823zm-27.664-5.467.285-.772-.285.772zm-22.778-8.398-.791-.229-.213.737.719.265.285-.773zm0 0 .79.229.229-.789-.789-.23-.23.79zm-9.425-17.013-.791-.227.791.227zm1.206-2.908.719.401.367-.658-.622-.423-.464.68zm-6.849-18.987.791.226-.791-.226zm.404-1.234.772.285.269-.727-.71-.312-.331.754zm-9.502-20.458-.791-.227.791.227zm5.009-8.581-33.589-10.483-.491 1.571 33.59 10.483.49-1.571zm-33.607-10.489c-8.513-2.444-13.521-11.577-11.051-20.204l-1.582-.453c-2.716 9.484 2.775 19.54 12.178 22.24l.455-1.583zM231.8 424.329c2.472-8.63 11.549-13.714 20.062-11.27l.454-1.582c-9.403-2.7-19.381 2.91-22.098 12.399l1.582.453zm20.044-11.275 66.265 20.681.491-1.572-66.266-20.681-.49 1.572zm66.283 20.686c1.063.305 2.071.714 3.016 1.213l.768-1.456a17.352 17.352 0 0 0-3.329-1.339l-.455 1.582zm2.639.152-.03.106 1.582.455.031-.106-1.583-.455zm56.269 17.962-55.216-18.515-.523 1.561 55.215 18.515.524-1.561zm2.075 87.393-1.514-86.627-1.646.029 1.514 86.627 1.646-.029zm-33.083-.356 32.229 1.193.061-1.645-32.23-1.193-.06 1.645zm-27.919-5.517a90.372 90.372 0 0 0 27.919 5.517l.06-1.645a88.727 88.727 0 0 1-27.409-5.417l-.57 1.545zm-22.778-8.398 22.778 8.398.57-1.545-22.779-8.398-.569 1.545zm-.506-1.002 1.581.458-1.581-.458zm-9.425-17.011c-2.209 7.713 2.267 15.779 9.985 18.03l.461-1.58c-6.854-2-10.821-9.161-8.863-15.997l-1.583-.453zm1.278-3.082a14.515 14.515 0 0 0-1.278 3.082l1.583.453a12.92 12.92 0 0 1 1.133-2.733l-1.438-.802zm-6.922-18.813c-2.19 7.649.958 15.66 7.178 19.895l.927-1.361c-5.65-3.846-8.512-11.133-6.522-18.081l-1.583-.453zm.424-1.293c-.157.422-.298.854-.424 1.293l1.583.453c.114-.399.243-.791.385-1.175l-1.544-.571zm-9.521-20.399c-2.495 8.714 1.937 17.905 9.961 21.438l.663-1.507c-7.272-3.202-11.309-11.557-9.041-19.478l-1.583-.453zm4.992-8.169a17.945 17.945 0 0 0-4.992 8.169l1.583.453a16.3 16.3 0 0 1 4.535-7.421l-1.126-1.201z" fill="#EBA131"/>
    <path fill-rule="evenodd" clip-rule="evenodd" d="m357.264 444.012-23.411 104.672s119.911 18.025 175.071-20.528c55.161-38.553-16.052-124.375-16.052-124.375l-33.554 5.321v49.348l-102.054-14.438z" fill="#BDD1FF"/>
    <path fill-rule="evenodd" clip-rule="evenodd" d="M357.264 442.221 334.75 546.893s118.549 21.174 174.174-19.756c55.626-40.93-16.052-125.147-16.052-125.147l-33.554 3.53-.87 38.899a6.267 6.267 0 0 1-6.815 6.104l-94.369-8.302z" fill="#fff"/>
    <mask id="up69pho2gu" style="mask-type:alpha" maskUnits="userSpaceOnUse" x="334" y="401" width="197" height="152">
        <path fill-rule="evenodd" clip-rule="evenodd" d="M357.264 442.221 334.75 546.893s118.549 21.174 174.174-19.756c55.626-40.93-16.052-125.147-16.052-125.147l-33.554 3.53-.87 38.899a6.267 6.267 0 0 1-6.815 6.104l-94.369-8.302z" fill="#fff"/>
    </mask>
    <g mask="url(#up69pho2gu)" fill="#FF8B71">
        <path opacity=".3" d="M396.693 541.583c-.764 0-1.531-.492-1.987-1.31-.612-1.148-.308-2.622.916-3.277l5.045-3.11c1.071-.656 2.447-.329 3.058.981.612 1.148.305 2.621-.919 3.277l-5.045 3.11c-.304.166-.609.329-1.068.329zM495.166 498.615c-.764 0-1.531-.492-1.987-1.31-.612-1.148-.307-2.621.916-3.277l5.045-3.11c1.071-.655 2.447-.329 3.058.981.612 1.148.305 2.621-.918 3.277l-5.046 3.11c-.304.166-.609.329-1.068.329zM525.603 486.979c-.764 0-1.531-.493-1.987-1.311-.612-1.147-.307-2.621.916-3.276l5.045-3.111c1.071-.655 2.447-.329 3.058.982.612 1.147.305 2.621-.918 3.276l-5.046 3.111c-.304.165-.609.329-1.068.329zM439.663 526.365c-.764 0-1.53-.492-1.987-1.31-.612-1.148-.307-2.621.916-3.277l5.045-3.11c1.071-.655 2.447-.329 3.058.981.612 1.148.305 2.621-.918 3.277l-5.046 3.11c-.304.166-.609.329-1.068.329zM455.777 542.478c-.764 0-1.531-.493-1.987-1.311-.612-1.147-.308-2.621.916-3.276l5.045-3.111c1.071-.655 2.446-.329 3.058.982.612 1.147.305 2.621-.919 3.276l-5.045 3.111c-.304.166-.609.329-1.068.329zM376.004 504.665c-.469 0-.779-.145-1.248-.29l-6.547-3.645c-1.093-.584-1.403-1.896-.779-3.062.623-1.022 2.026-1.315 3.273-.731l6.548 3.645c1.09.583 1.403 1.895.779 3.062-.468.583-1.247 1.021-2.026 1.021zM355.414 516.303c-.469 0-.779-.145-1.248-.291l-6.547-3.645c-1.093-.583-1.403-1.895-.779-3.062.623-1.021 2.026-1.314 3.274-.731l6.547 3.645c1.09.584 1.403 1.896.779 3.062-.468.584-1.247 1.022-2.026 1.022zM474.476 496.609c-.468 0-.779-.145-1.247-.29l-6.548-3.645c-1.092-.583-1.403-1.895-.779-3.062.624-1.021 2.027-1.314 3.274-.731l6.548 3.645c1.089.583 1.402 1.895.779 3.062-.469.583-1.248 1.021-2.027 1.021zM487.01 531.52c-.469 0-.779-.146-1.248-.291l-6.548-3.645c-1.092-.583-1.402-1.895-.779-3.062.624-1.021 2.027-1.314 3.274-.731l6.548 3.645c1.089.584 1.403 1.895.779 3.062-.468.583-1.247 1.022-2.026 1.022zM425.862 535.162c-.301 0-.599 0-.748-.17l-6.744-2.903c-1.199-.513-1.798-2.049-1.348-3.245.45-1.367 1.799-2.05 2.846-1.537l6.743 2.903c1.199.513 1.799 2.049 1.348 3.246-.298 1.023-1.199 1.706-2.097 1.706zM408.313 515.901c-.304 0-.606 0-.907-.169l-6.807-3.064c-1.211-.512-1.665-2.043-1.211-3.236.455-1.363 1.816-1.871 2.873-1.363l6.807 3.067c1.211.509 1.665 2.044 1.211 3.234-.301.85-1.06 1.531-1.966 1.531zM506.785 472.934c-.304 0-.605 0-.906-.17l-6.808-3.064c-1.21-.511-1.665-2.043-1.21-3.236.454-1.362 1.815-1.871 2.873-1.362l6.807 3.066c1.21.509 1.665 2.044 1.21 3.234-.301.85-1.059 1.532-1.966 1.532zM518.423 518.587c-.304 0-.605 0-.906-.17l-6.808-3.063c-1.21-.512-1.665-2.044-1.21-3.237.454-1.362 1.815-1.871 2.872-1.362l6.808 3.067c1.21.508 1.665 2.043 1.21 3.233-.301.851-1.06 1.532-1.966 1.532zM531.851 463.088c-.304 0-.605 0-.906-.17l-6.808-3.063c-1.21-.512-1.665-2.044-1.21-3.237.454-1.362 1.815-1.871 2.872-1.362l6.808 3.067c1.21.508 1.665 2.043 1.21 3.233-.301.851-1.059 1.532-1.966 1.532zM451.282 500.684c-.304 0-.605 0-.906-.17l-6.808-3.064c-1.21-.511-1.665-2.043-1.21-3.236.455-1.362 1.816-1.871 2.873-1.362l6.807 3.066c1.211.509 1.665 2.044 1.211 3.234-.302.85-1.06 1.532-1.967 1.532zM372.662 483.799c-.78 0-1.559-.447-2.028-1.189-.625-1.041-.311-2.378.938-2.973l6.554-3.567c1.091-.594 2.495-.296 3.12.893.624 1.039.313 2.376-.936 2.97l-6.554 3.567c-.311.148-.625.299-1.094.299zM472.925 435.461c-.779 0-1.559-.447-2.028-1.189-.625-1.041-.311-2.378.938-2.973l6.555-3.567c1.09-.594 2.494-.295 3.119.894.624 1.038.313 2.375-.935 2.969l-6.555 3.567c-.311.148-.625.299-1.094.299zM471.135 475.743c-.78 0-1.56-.446-2.029-1.189-.624-1.041-.311-2.378.938-2.972l6.555-3.567c1.091-.595 2.495-.296 3.119.893.625 1.038.314 2.375-.935 2.97l-6.555 3.567c-.311.148-.624.298-1.093.298zM372.662 522.291c-.78 0-1.559-.446-2.028-1.189-.625-1.041-.311-2.378.938-2.972l6.554-3.567c1.091-.595 2.495-.296 3.12.893.624 1.038.313 2.375-.936 2.97l-6.554 3.567c-.311.148-.625.298-1.094.298zM348.491 542.879c-.779 0-1.559-.447-2.028-1.189-.625-1.041-.311-2.378.938-2.973l6.554-3.567c1.091-.594 2.495-.296 3.12.893.624 1.039.313 2.376-.936 2.97l-6.554 3.567c-.311.148-.625.299-1.094.299zM471.135 514.234c-.78 0-1.56-.446-2.029-1.189-.624-1.041-.311-2.378.938-2.972l6.555-3.567c1.091-.595 2.495-.296 3.119.893.625 1.038.314 2.375-.935 2.97l-6.555 3.567c-.311.148-.624.298-1.093.298zM422.378 499.851c-.766 0-1.53-.49-1.99-1.308-.611-1.148-.304-2.622.919-3.277l5.046-3.114c1.068-.655 2.443-.326 3.055.985.612 1.145.307 2.618-.916 3.274l-5.045 3.113c-.305.327-.612.327-1.069.327zM393.53 456.513c-.779 0-1.559-.447-2.028-1.189-.624-1.041-.314-2.378.935-2.973l6.555-3.567c1.093-.594 2.497-.296 3.121.893.625 1.039.314 2.376-.935 2.97l-6.554 3.567c-.314.148-.625.299-1.094.299zM492.003 413.546c-.78 0-1.559-.447-2.028-1.189-.625-1.041-.314-2.378.935-2.973l6.554-3.567c1.093-.594 2.498-.296 3.122.893.624 1.039.314 2.376-.935 2.97l-6.555 3.567c-.313.148-.624.299-1.093.299zM436.5 441.295c-.78 0-1.559-.447-2.028-1.189-.625-1.041-.314-2.378.935-2.973l6.554-3.567c1.094-.594 2.498-.296 3.122.893.624 1.039.314 2.376-.935 2.97l-6.555 3.567c-.313.148-.624.299-1.093.299zM400.048 490.22c-.475 0-.79-.143-1.265-.288l-6.479-3.723c-1.107-.573-1.425-2.004-.793-3.007.633-1.001 2.215-1.289 3.32-.716l6.482 3.723c1.108.573 1.423 2.004.79 3.007-.472.573-1.265 1.004-2.055 1.004zM498.521 447.253c-.475 0-.79-.143-1.265-.288l-6.479-3.723c-1.108-.573-1.425-2.004-.793-3.007.633-1.001 2.215-1.289 3.32-.716l6.482 3.723c1.107.573 1.422 2.004.79 3.008-.472.573-1.265 1.003-2.055 1.003zM531.644 440.986c-.476 0-.79-.142-1.265-.287l-6.48-3.723c-1.107-.573-1.425-2.004-.792-3.008.632-1.001 2.215-1.288 3.319-.715l6.482 3.723c1.108.573 1.423 2.004.79 3.007-.472.573-1.265 1.003-2.054 1.003zM443.018 475.002c-.475 0-.79-.143-1.265-.288l-6.479-3.723c-1.108-.573-1.425-2.004-.793-3.007.633-1.001 2.215-1.289 3.32-.716l6.482 3.723c1.107.573 1.422 2.004.79 3.008-.472.573-1.265 1.003-2.055 1.003zM422.428 474.107c-.475 0-.79-.142-1.265-.287l-6.479-3.723c-1.108-.573-1.425-2.004-.793-3.008.633-1 2.215-1.288 3.32-.715l6.482 3.723c1.108.573 1.422 2.004.79 3.007-.472.573-1.265 1.003-2.055 1.003zM375.971 464.538c-.475 0-.79-.142-1.265-.288l-6.483-3.722c-1.104-.573-1.422-2.004-.79-3.007.633-1.004 2.213-1.289 3.32-.716l6.483 3.723c1.105.573 1.422 2.004.79 3.007-.475.715-1.265 1.003-2.055 1.003zM474.443 456.482c-.475 0-.79-.143-1.265-.288l-6.482-3.723c-1.105-.573-1.422-2.004-.79-3.007.633-1.003 2.212-1.289 3.32-.716l6.482 3.723c1.105.573 1.423 2.004.79 3.007-.475.716-1.265 1.004-2.055 1.004z"/>
    </g>
    <path d="m457.948 451.11-100.19-11.883-23.851 108.155s84.056 10.628 118.409 3.98c34.353-6.648 65.979-21.817 75.809-46.696 9.83-24.879 4.816-57.668-20.466-84.823" stroke="#FF967F" stroke-width="2" stroke-linecap="round" stroke-linejoin="round"/>
    <path d="m342.154 390.363 3.494-3.932a1.028 1.028 0 0 1 1.746.584l.292 5.24c.146 2.33 1.164 4.515 3.058 6.115l3.931 3.494a1.03 1.03 0 0 1-.582 1.748l-5.243.29c-2.328.146-4.512 1.166-6.114 3.058l-3.494 3.93a1.03 1.03 0 0 1-1.749-.582l-.29-5.24c-.146-2.33-1.164-4.514-3.058-6.116l-3.93-3.494a1.028 1.028 0 0 1 .582-1.746l5.242-.292c2.328-.145 4.659-1.31 6.115-3.057z" fill="#FF795B"/>
    <path d="m71.822 427.657 3.245-3.651a.955.955 0 0 1 1.621.542l.271 4.866c.136 2.163 1.081 4.191 2.84 5.677l3.65 3.245a.956.956 0 0 1-.54 1.623l-4.869.269c-2.162.136-4.19 1.083-5.678 2.84l-3.244 3.649a.956.956 0 0 1-1.624-.54l-.269-4.866c-.136-2.164-1.081-4.192-2.84-5.679l-3.65-3.245a.954.954 0 0 1 .541-1.621l4.868-.271c2.162-.134 4.326-1.217 5.678-2.838z" fill="#fff"/>
    <ellipse cx="278.486" cy="383.555" rx="8.057" ry="8.056" fill="#fff"/>
    <path d="M185.72 394.614c-.805 0-1.77-.16-2.575-.644l-19.63-11.906c-2.253-1.449-3.057-4.343-1.609-6.596s4.344-3.058 6.597-1.609l19.63 11.906c2.253 1.449 3.057 4.343 1.609 6.596-.804 1.449-2.413 2.253-4.022 2.253z" fill="#fff"/>
    <path fill-rule="evenodd" clip-rule="evenodd" d="m121.342 105.953-25.84-2.311c-8.182-.731-15.303 5.554-15.593 13.764l-1.055 29.809h7.715v-24.186c0-6.326 5.437-11.283 11.735-10.7l23.038 2.132v-8.508zM211.381 276.904l25.879 2.12c8.347.684 15.498-5.905 15.498-14.279v-33.481l-9.185-.745.652 29.495c.13 5.862-4.86 10.539-10.702 10.03l-22.142-1.928v8.788z" fill="#4FD8D8"/>
    <path d="M127.24 261.89c-17.841 2.847-34.485-9.281-37.318-27.022-2.85-17.879 9.246-34.553 26.948-37.383l69.349-11.532 10.385 64.544-51.741 8.35" fill="url(#1iforff10v)"/>
    <path d="m122.375 196.688 63.996-10.334 10.383 64.544-51.739 8.351" stroke="#66A4EC" stroke-width="1.075"/>
    <path d="M448.394 372.869c15.573 1.569 28.199-9.784 28.199-25.357 0-15.572-12.626-29.469-28.199-31.037-15.574-1.569-28.199 9.784-28.199 25.357 0 15.572 12.625 29.469 28.199 31.037z" fill="url(#vnbdlxnyqw)"/>
    <path fill-rule="evenodd" clip-rule="evenodd" d="M442.737 359.451v-29l1.789.18v29l-1.789-.18zm-3.579-23.923v18.125l1.789.18v-18.125l-1.789-.18zm-3.579 14.14v-10.875l1.789.18v10.875l-1.789-.18zM432 340.245v5.437l1.789.18v-5.437l-1.789-.18zm21.474 2.163v5.437l1.789.18v-5.437l-1.789-.18zm-7.158 11.966v-18.125l1.789.18v18.125l-1.789-.18zm14.316-16.683v18.125l1.789.18v-18.125l-1.789-.18zm-10.737.731v12.688l1.789.18v-12.688l-1.789-.18zm7.158 13.409v-12.688l1.789.18v12.688l-1.789-.18zm7.158-11.967v12.688l1.789.18v-12.688l-1.789-.18z" fill="#153C63"/>
    <path d="M509.172 184.154c12.607.913 22.828-8.566 22.828-21.172 0-12.607-10.221-23.567-22.828-24.481-12.607-.913-22.828 8.566-22.828 21.172 0 12.607 10.221 23.567 22.828 24.481z" fill="#153C63"/>
    <path d="m509 171.173-1.45-1.425c-5.15-5.043-8.55-8.37-8.55-12.15 0-3.08 2.42-5.324 5.5-5.101 1.74.126 3.41 1.057 4.5 2.416 1.09-1.201 2.76-1.89 4.5-1.764 3.08.223 5.5 2.819 5.5 5.899 0 3.78-3.4 6.613-8.55 10.92l-1.45 1.205z" fill="#fff"/>
    <path fill-rule="evenodd" clip-rule="evenodd" d="m183 248.181-24.656-1.264v10.204c0 5.26 2.243 11.451 6.587 14.466l4.853 3.37c.43.298 1.002.298 1.432 0l4.853-3.37A16.077 16.077 0 0 0 183 258.385v-10.204zm-5.264 8.569a.932.932 0 0 0 0-1.3.887.887 0 0 0-1.273 0l-6.984 7.13-3.942-4.026a.889.889 0 0 0-1.273 0 .932.932 0 0 0 0 1.3l4.579 4.676.636.651.637-.651 7.62-7.78z" fill="#4FD8D8"/>
    <path d="M412.291 198.672c0-14.818-12.014-28.034-26.856-29.539-14.842-1.504-26.856 9.277-26.856 24.095 0 12.199 8.177 23.313 19.385 27.674l1.11 3.843c.504 1.664 2.02 3.028 3.736 3.202l5.049.512c1.716.174 3.229-.783 3.736-2.445l1.109-3.618c11.409-2.069 19.587-11.525 19.587-23.724z" fill="url(#9fwxe7quzx)"/>
    <path opacity=".58" d="M395.492 180.153c5.371 2.563 9.399 7.482 10.742 13.428" stroke="#fff" stroke-width="1.538" stroke-linecap="round" stroke-linejoin="round"/>
    <path fill-rule="evenodd" clip-rule="evenodd" d="M376.757 191.882c-1.108-.115-1.974.665-1.974 1.784v3.382c0 1.118.866 2.08 1.974 2.195l3.454.359 1.874.195v-5.372a2.222 2.222 0 0 0-1.974-2.195l-3.354-.348zm11.938 9.596-5.624-.585v9.449l-.986-.103v-9.448l-5.328-.554c-1.653-.172-2.96-1.625-2.96-3.291v-3.382c0-1.668 1.307-2.848 2.96-2.676l3.354.348c1.655.172 2.96 1.623 2.96 3.292V199.899l5.624.585v-5.372c0-1.668 1.306-2.848 2.959-2.676l3.354.348c1.655.172 2.96 1.623 2.96 3.292v3.381c0 1.667-1.305 2.849-2.96 2.677l-5.327-.554v9.449l-.986-.103v-9.448zm.986-.892 5.327.554c1.109.115 1.974-.668 1.974-1.785v-3.382c0-1.119-.865-2.08-1.974-2.195l-3.354-.348c-1.108-.115-1.973.665-1.973 1.785V200.586z" fill="#3D2C00"/>
    <path d="m382.084 231.681 7.416 1M382.084 235.681l7.416 1" stroke="#FFCD4F" stroke-width="2" stroke-linecap="round" stroke-linejoin="round"/>
    <defs>
        <linearGradient id="xd1p5pb90a" x1="415.204" y1="238.059" x2="523.126" y2="105.316" gradientUnits="userSpaceOnUse">
            <stop stop-color="#FFD6B7"/>
            <stop offset="1" stop-color="#FFDDC2"/>
        </linearGradient>
        <linearGradient id="lsxs4wqspc" x1="4.997" y1=".18" x2="4.997" y2="462.349" gradientUnits="userSpaceOnUse">
            <stop stop-color="#FF9B85"/>
            <stop offset="0" stop-color="#FFB4A3"/>
            <stop offset="1" stop-color="#FF8468"/>
        </linearGradient>
        <linearGradient id="as4mms8a2d" x1="-37.592" y1="132.88" x2="111.792" y2="268.713" gradientUnits="userSpaceOnUse">
            <stop offset=".35" stop-color="#FFF1E6"/>
            <stop offset="1" stop-color="#FFDEC3"/>
        </linearGradient>
        <linearGradient id="tv1tzkhg5g" x1="66.322" y1="153.984" x2="66.322" y2="307.055" gradientUnits="userSpaceOnUse">
            <stop stop-color="#25699A"/>
            <stop offset="1" stop-color="#103861"/>
        </linearGradient>
        <linearGradient id="5ffneqfmjh" x1="257.414" y1="191.165" x2="323.571" y2="154.16" gradientUnits="userSpaceOnUse">
            <stop stop-color="#002143"/>
            <stop offset="1" stop-color="#184370"/>
        </linearGradient>
        <linearGradient id="0qd4xjycsi" x1="197.445" y1="139.788" x2="201.007" y2="169.336" gradientUnits="userSpaceOnUse">
            <stop stop-color="#C8C8C8"/>
            <stop offset="1" stop-color="#989898"/>
        </linearGradient>
        <linearGradient id="dyf4ga0n4j" x1="205.703" y1="157.645" x2="183.268" y2="235.885" gradientUnits="userSpaceOnUse">
            <stop stop-color="#403D3D"/>
            <stop offset="1" stop-color="#060606"/>
        </linearGradient>
        <linearGradient id="q6d51xlx4k" x1="-7.914" y1="41.912" x2="37.994" y2="337.915" gradientUnits="userSpaceOnUse">
            <stop stop-color="#FFFBC3"/>
            <stop offset="1" stop-color="#fff" stop-opacity=".01"/>
        </linearGradient>
        <linearGradient id="l2e750yccm" x1="581.474" y1="172.603" x2="289.042" y2="90.138" gradientUnits="userSpaceOnUse">
            <stop stop-color="#F7C2B0"/>
            <stop offset="1" stop-color="#FF8569"/>
        </linearGradient>
        <linearGradient id="fwn4gqlk7n" x1="348.592" y1="276.634" x2="371.003" y2="263.997" gradientUnits="userSpaceOnUse">
            <stop stop-color="#002143"/>
            <stop offset="1" stop-color="#184370"/>
        </linearGradient>
        <linearGradient id="h53fcjh9to" x1="328.164" y1="259.252" x2="329.359" y2="269.238" gradientUnits="userSpaceOnUse">
            <stop stop-color="#C8C8C8"/>
            <stop offset="1" stop-color="#989898"/>
        </linearGradient>
        <linearGradient id="8gp07zs6up" x1="330.976" y1="265.281" x2="323.396" y2="291.716" gradientUnits="userSpaceOnUse">
            <stop stop-color="#403D3D"/>
            <stop offset="1" stop-color="#060606"/>
        </linearGradient>
        <linearGradient id="1de9nvtvvq" x1="293.366" y1="268.337" x2="290.133" y2="291.347" gradientUnits="userSpaceOnUse">
            <stop stop-color="#002143"/>
            <stop offset="1" stop-color="#184370"/>
        </linearGradient>
        <linearGradient id="ckyz07vihr" x1="529.095" y1="249.913" x2="479.034" y2="199.107" gradientUnits="userSpaceOnUse">
            <stop stop-color="#F19191"/>
            <stop offset="1" stop-color="#DF5858"/>
        </linearGradient>
        <linearGradient id="s55ohb02js" x1="516.897" y1="277.166" x2="465.7" y2="235.545" gradientUnits="userSpaceOnUse">
            <stop stop-color="#F19191"/>
            <stop offset="1" stop-color="#DF5858"/>
        </linearGradient>
        <linearGradient id="5ay520jhht" x1="519.952" y1="301.145" x2="478.46" y2="256.72" gradientUnits="userSpaceOnUse">
            <stop stop-color="#F19191"/>
            <stop offset="1" stop-color="#DF5858"/>
        </linearGradient>
        <linearGradient id="1iforff10v" x1="86.081" y1="188.812" x2="89.869" y2="264.927" gradientUnits="userSpaceOnUse">
            <stop stop-color="#002143"/>
            <stop offset="1" stop-color="#184370"/>
        </linearGradient>
        <linearGradient id="vnbdlxnyqw" x1="420.195" y1="316.33" x2="420.195" y2="373.014" gradientUnits="userSpaceOnUse">
            <stop stop-color="#C1F6F6"/>
            <stop offset="1" stop-color="#9EECEC"/>
        </linearGradient>
        <linearGradient id="9fwxe7quzx" x1="358.579" y1="168.993" x2="358.579" y2="228.479" gradientUnits="userSpaceOnUse">
            <stop stop-color="#FFD97A"/>
            <stop offset="1" stop-color="#FFCA45"/>
        </linearGradient>
        <filter id="d74fz59eef" x="265" y="333.973" width="200" height="120.242" filterUnits="userSpaceOnUse" color-interpolation-filters="sRGB">
            <feFlood flood-opacity="0" result="BackgroundImageFix"/>
            <feColorMatrix in="SourceAlpha" values="0 0 0 0 0 0 0 0 0 0 0 0 0 0 0 0 0 0 127 0" result="hardAlpha"/>
            <feOffset dx="2"/>
            <feGaussianBlur stdDeviation="2"/>
            <feColorMatrix values="0 0 0 0 0 0 0 0 0 0 0 0 0 0 0 0 0 0 0.0709135 0"/>
            <feBlend in2="BackgroundImageFix" result="effect1_dropShadow_11_6465"/>
            <feBlend in="SourceGraphic" in2="effect1_dropShadow_11_6465" result="shape"/>
        </filter>
        <filter id="y474xcefrl" x="236.944" y="164.059" width="318.523" height="191.671" filterUnits="userSpaceOnUse" color-interpolation-filters="sRGB">
            <feFlood flood-opacity="0" result="BackgroundImageFix"/>
            <feColorMatrix in="SourceAlpha" values="0 0 0 0 0 0 0 0 0 0 0 0 0 0 0 0 0 0 127 0" result="hardAlpha"/>
            <feOffset dy="-1"/>
            <feGaussianBlur stdDeviation="6"/>
            <feColorMatrix values="0 0 0 0 0 0 0 0 0 0 0 0 0 0 0 0 0 0 0.128169 0"/>
            <feBlend in2="BackgroundImageFix" result="effect1_dropShadow_11_6465"/>
            <feBlend in="SourceGraphic" in2="effect1_dropShadow_11_6465" result="shape"/>
        </filter>
    </defs>
</svg>
