<svg width="44" height="44" viewBox="0 0 44 44" xmlns="http://www.w3.org/2000/svg">
    <defs>
        <linearGradient x1="76.11%" y1="94.411%" x2="37.287%" y2="6.47%" id="a">
            <stop stop-color="#FF6137" offset="41%"/>
            <stop stop-color="#FF5A35" offset="58%"/>
            <stop stop-color="#FD462E" offset="82%"/>
            <stop stop-color="#FC3328" offset="100%"/>
        </linearGradient>
        <linearGradient x1="48.958%" y1="83.912%" x2="55.844%" y2="-15.39%" id="b">
            <stop stop-color="#E21C22" offset="0%"/>
            <stop stop-color="#F23B21" offset="36%"/>
            <stop stop-color="#FC4D21" offset="68%"/>
            <stop stop-color="#FF5421" offset="89%"/>
        </linearGradient>
        <linearGradient x1="118.361%" y1="89.672%" x2="-44.942%" y2="-18.049%" id="c">
            <stop stop-color="#FF7E12" offset="13%"/>
            <stop stop-color="#FF5C1B" offset="45%"/>
            <stop stop-color="#FF3E24" offset="80%"/>
            <stop stop-color="#FF3327" offset="100%"/>
        </linearGradient>
        <linearGradient x1="55.871%" y1="40.287%" x2="15.386%" y2="107.206%" id="d">
            <stop stop-color="#FF8400" offset="0%"/>
            <stop stop-color="#FF6B0C" offset="22%"/>
            <stop stop-color="#FF4C1B" offset="54%"/>
            <stop stop-color="#FF3A24" offset="81%"/>
            <stop stop-color="#FF3327" offset="100%"/>
        </linearGradient>
        <linearGradient x1="50.03%" y1="100.018%" x2="50.03%" y2="-.015%" id="e">
            <stop stop-color="#FF5441" offset="0%"/>
            <stop stop-color="#FFCA18" offset="100%"/>
        </linearGradient>
        <linearGradient x1="-7.808%" y1="13.518%" x2="83.153%" y2="65.95%" id="f">
            <stop stop-color="#FFB155" offset="14%"/>
            <stop stop-color="#FF5441" offset="100%"/>
        </linearGradient>
        <linearGradient x1="44.741%" y1="50%" x2="49.741%" y2="50%" id="g">
            <stop stop-color="#FF6F27" offset="53%"/>
            <stop stop-color="#FF6827" offset="64%"/>
            <stop stop-color="#FE5427" offset="80%"/>
            <stop stop-color="#FC3428" offset="100%"/>
            <stop stop-color="#FC3328" offset="100%"/>
        </linearGradient>
        <linearGradient x1="26.505%" y1="87.321%" x2="83.016%" y2="-22.102%" id="h">
            <stop stop-color="#FF5441" offset="0%"/>
            <stop stop-color="#FFB000" offset="100%"/>
        </linearGradient>
        <linearGradient x1="72.451%" y1="54.885%" x2="-9.373%" y2="39.361%" id="i">
            <stop stop-color="#FF5441" offset="0%"/>
            <stop stop-color="#FF7642" offset="55%"/>
            <stop stop-color="#FF8E43" offset="100%"/>
        </linearGradient>
    </defs>
    <g fill="none" fill-rule="evenodd">
        <path d="M0 0h112v44H0z"/>
        <g transform="translate(7 5)" fill-rule="nonzero">
            <path d="M8.383 22.687C8.22 20.46 6.379 18.74 4.17 18.754 1.96 18.768.14 20.51.006 22.74v.106c.077 4.976 3.825 8.94 8.391 9.922l-.014-10.082z" fill="url(#a)"/>
            <path d="M8.378 10.169v5.178c-.583-1.049-1.477-2.983-2.591-3.264.243-1.286 1.042-2.195 2.59-1.914z" fill="url(#b)"/>
            <path d="M8.378 19.23c-.67-1.804-2.936-2.447-4.15-2.597a8.077 8.077 0 0 0-2.663.18 1.242 1.242 0 0 1-1.073-.257 1.273 1.273 0 0 1-.457-1.015v-.276a4.306 4.306 0 0 1 3.213-3.931 3.826 3.826 0 0 1 1.888 0c1.626.343 2.936 1.934 3.242 3.66.014.102 0 4.081 0 4.236z" fill="url(#c)"/>
            <ellipse fill="url(#d)" cx="20.904" cy="9.289" rx="9.156" ry="9.26"/>
            <path d="M27.622 8.868c-3.603.402-6.317 3.5-6.278 7.166v6.48a11.705 11.705 0 0 1-1.362 4.902c-2.002 3.541-5.765 5.684-9.797 5.58V22.987v.073-11.74c.034-1.407.311-2.796.818-4.106C12.332 3.486 15.74.928 19.059.174a9.138 9.138 0 0 1 4.59.27 8.974 8.974 0 0 1 3.25 1.814 9.312 9.312 0 0 1 2.272 3.11c.333.73.58 1.497.736 2.286a9.29 9.29 0 0 1 0 3.385s.507-2.321-2.285-2.171z" fill="url(#e)"/>
            <path d="M8.383 32.779v-2.002c-3.27-.779-4.303-5.319-4.303-7.49 0-1.905.067-2.563-.904-3.23a1.982 1.982 0 0 0-2.486.396 3.842 3.842 0 0 0-.684 2.418c.062 4.961 3.825 8.926 8.377 9.908z" fill="url(#f)"/>
            <path d="M29.926 10.904v.154a1.208 1.208 0 0 0 0-.154z" fill="url(#g)"/>
            <path d="M19.977 27.416a11.642 11.642 0 0 0 1.362-4.903v-6.48c-.036-3.665 2.68-6.763 6.283-7.165 2.352-.14 2.362 1.509 2.304 2.036.105-.706.89-8.53-5.259-8.037-6.454.532-9.213 5.396-9.213 11.861v10.329c0 1.252-1.54 5.763-5.26 5.763v2.176c4.028.102 7.786-2.041 9.783-5.58z" fill="url(#h)"/>
            <path d="M1.565 16.812c.813-.164 3.61-.778 6.086 1.306-1.248-1.712-3.547-2.77-4.972-2.77a5.107 5.107 0 0 0-2.577.623 1.26 1.26 0 0 0 1.463.841z" fill="url(#i)"/>
        </g>
    </g>
</svg>
